Patient4_TMGait_0pt6_01_right_37_EMG.mot
version=1
nRows=33
nColumns=33
inDegrees=no
endheader
time	1LAddLong	2LGlutMax	3LGlutMed	4LIliopsoas	5LSemiMemb	6LBicFemLong	7LRecFem	8LVastMed	9LVastLat	10LGasMed	11LTibAnt	12lTibPost	13LPeroneusLong	14LSol	15LExtDigLong	16LFlexDigLong	17RAddLong	18RGlutMax	19RGlutMed	20RIliopsoas	21RSemiMemb	22RBicFemLong	23RRecFem	24RVastMed	25RVastLat	26RGasMed	27RTibAnt	28RTibPost	29RPeroneusLong	30RSol	31RExtDigLong	32RFlexDigLong
45.763	0.034637	-0.045929	-0.020142	0.005646	0.057373	-0.088348	0.15228	0.006104	0.030518	-0.011444	-0.083008	0.006409	-0.031433	-0.018311	-0.006714	0.001221	-0.016937	-0.052795	0.03067	-0.002136	0.080414	0.014496	-0.048065	-0.001526	-0.006256	0.005493	-0.15488	0.003662	0.15076	0.003662	-0.000763	-0.011292
45.764	0.027466	-0.067902	-0.15472	0.016785	0.082703	-0.065155	0.16403	0.002594	0.018768	-0.006561	-0.066223	-0.000916	-0.001831	0.015106	-0.21561	-0.010223	-0.039673	-0.084686	-0.08728	0.010986	0.15991	0.054474	0.006256	-0.040588	-0.018921	0.000916	-0.10422	0.003357	-0.34378	0.01297	-0.00061	-0.009003
45.765	0.016479	-0.052643	-0.16617	0.000153	0.076752	-0.011597	0.20432	0.003204	-0.007324	0.002899	-0.048523	0.005035	-0.033112	0.055542	-0.16373	-0.003967	-0.059204	-0.12466	0.015411	-0.017242	0.039368	0.071564	0.070343	0.01358	0.012207	-0.001678	-0.054016	0.002289	-0.25253	0.069275	-0.00473	-0.017242
45.766	0.014801	-0.011444	-0.16602	-0.006409	0.041046	0.001221	0.21133	0.002136	-0.033264	0.006561	0.022888	0.003052	-0.029907	0.098267	-0.059204	0.00061	-0.021362	-0.11704	-0.061798	0.002594	0.002441	0.003815	0.12283	0.047302	0.028381	0.000763	-0.36484	0.00946	0.15656	-0.01358	-0.000916	-0.015564
45.767	0.017395	-0.011749	-0.21744	0.002441	0.050964	-0.009003	0.20187	0.002747	-0.02243	0.009613	0.16312	0.005341	-0.052338	0.16037	-0.09903	-0.004425	-0.016022	-0.069733	-0.03006	0.016785	0.000916	-0.022888	0.13519	-0.011749	0.054016	0.006866	-0.41351	0.001221	0.22949	-0.000305	0.001373	-0.009766
45.768	0.007629	-0.01709	-0.28122	0.012665	0.044861	0.039215	0.21668	0.00412	-0.042725	0.029602	0.21744	-0.003357	-0.045776	0.1088	-0.1474	0.012207	-0.011444	-0.085907	-0.080719	-0.028076	-0.002441	-0.010223	0.1265	0.004883	0.060425	0.003662	-0.14343	0.002899	-0.16235	-0.019989	-0.002899	-0.020447
45.769	-0.002899	0.012665	-0.28641	0.031433	0.04364	0.059967	0.23544	0.000153	-0.067902	0.027771	0.18829	0.002899	-0.000458	0.095367	-0.14053	0.006561	-0.010834	-0.11704	-0.21042	-0.067291	-0.007782	-0.005188	0.065918	0.081024	0.059662	0.000458	0.14526	0.002441	-0.51361	-0.040588	-0.005035	-0.009613
45.77	0.001373	0.013123	-0.32989	0.010376	0.023346	0.063019	0.26672	0.007782	-0.11581	-0.007782	0.062714	0.001831	0.042572	0.014648	-0.067902	-0.018463	-0.018463	-0.10712	-0.20126	-0.16357	-0.002747	0	0.088043	0.078583	0.043945	-0.009155	0.22705	-0.000458	-0.32944	-0.045013	-0.000763	-0.011749
45.771	0.000305	0.020447	-0.16617	-0.009613	0.00885	0.079803	0.26749	0.014038	-0.17441	-0.0383	-0.089417	0.003357	0.04837	-0.022736	0.074615	-0.010681	-0.004578	-0.10513	-0.19898	-0.14053	0.012054	-0.002136	0.079651	0.014648	0.049133	-0.001373	0.24643	0.000305	0.012817	0.005646	-0.003052	-0.00412
45.772	0.00946	0.026703	0.00824	-0.025177	0.006104	0.040894	0.20172	0.005188	-0.19134	-0.046082	-0.1796	-0.003204	0.01236	-0.04715	0.10529	-0.003967	0.005951	-0.11185	-0.24353	-0.00946	0.071106	-0.019684	0.11459	0.005188	0.032806	0.004578	0.271	0.002136	0.62485	-0.009155	-0.002899	-0.007477
45.773	0.004272	-0.011139	0.023193	-0.007629	0.061951	0.045471	0.1413	-0.000763	-0.17563	-0.039063	-0.16708	0.00473	0.00061	-0.001831	0.073242	-0.001678	0.003967	-0.13031	-0.36346	0.14008	0.038452	-0.067749	0.082245	-0.005341	0.027161	0.00412	0.028229	0.001221	0.86456	-0.031586	-0.003357	0.000458
45.774	0.016937	-0.014648	0.041962	0.001221	0.032806	0.07431	0.15289	-0.001068	-0.096741	-0.00824	-0.072937	0.007019	-0.076447	0.018616	0.069122	-0.010376	0.003052	-0.11505	-0.42587	0.19287	-0.023193	-0.091248	0.075378	-0.031891	0.023651	-0.005188	-0.041656	0.001831	-0.082397	-0.038757	-0.001221	0.001373
45.775	0.009003	-0.01297	0.070953	0.005798	0.035858	0.015564	0.14099	0.007629	0.022278	-0.001221	-0.049133	0.005188	-0.092316	0.051575	0.098419	0.000458	0.009155	-0.14114	-0.32669	0.10742	-0.053253	-0.051422	0.041809	-0.094452	0.031281	0.000458	-0.019531	0.00061	-0.12528	-0.003967	0.000305	0.003357
45.776	0.017242	0.048065	0.007019	0.015106	0.046844	-0.056763	0.083466	0.001678	0.018005	0.004578	-0.043182	-0.006104	-0.033569	0.038452	0.11154	-0.005798	0.015411	-0.11444	-0.27084	0.046539	-0.14252	0.035553	0.054474	-0.067596	0.018005	0.001831	0.028839	-0.000305	0.34912	-0.021973	-0.004272	-0.00061
45.777	0.018463	0.046997	-0.067444	-0.009766	0.041504	-0.052643	0.22201	-0.009155	0.027161	0.031433	0.0177	-0.000916	-0.046234	0.035553	0.063782	-0.005341	0.040436	-0.072937	-0.30624	0.053864	-0.14832	0.10986	-0.043488	-0.086365	0.024109	0.003204	0.066681	0.000458	0.77194	-0.071716	-0.005188	0.00061
45.778	0.021515	0.02655	-0.067596	-0.016174	0.038452	-0.045166	0.18387	0.004578	0.023193	0.052948	0.083466	0.002899	-0.042725	0.020599	0.008545	0.009613	0.001373	-0.076447	-0.24933	0.023804	0.090027	0.10498	-0.11551	0.012665	0.036469	0.007477	0.06546	-0.001831	0.35095	0.045471	-0.006256	0.001984
45.779	0.012512	0.072937	-0.11551	-0.000916	0.032654	-0.006561	0.18234	0.00412	0.062103	0.024872	0.14755	-0.001831	-0.022278	0.001221	0.036621	0.042267	0.026855	-0.076294	-0.21194	0.018463	-0.028381	0.024109	-0.094147	-0.040131	0.037231	0.005188	0.072479	-0.001068	-0.24872	0.12405	-0.00351	0.001221
45.78	0.012665	0.076141	-0.1268	-0.003357	0.028381	0.011902	0.21957	0.006104	-0.015869	0.025635	0.10941	0.005035	0.009003	0.034332	0.067596	0.10239	0.019073	-0.066376	-0.19012	-0.010376	-0.093994	0.000153	-0.097504	-0.018921	0.023499	0.000305	0.1236	-0.001221	-0.59418	0.010986	-0.003662	-0.006104
45.781	0.012817	0.073242	-0.14954	0.001831	0.03006	0.014038	0.17212	-0.012817	-0.054626	0.020599	0.027313	0.002441	0.01297	0.15518	0.11826	-0.21759	0.006256	-0.091248	-0.25986	0.005951	-0.078583	-0.01358	-0.057831	-0.005646	0.028839	-0.007782	0.12375	-0.001984	-0.36301	-0.10559	-0.001678	-0.011444
45.782	0.007019	0.093231	-0.10315	-0.006714	0.022125	-0.010529	0.13992	-0.001831	-0.048676	-0.020752	-0.010681	0.012207	0.032654	0.2182	0.17059	-0.22598	0.003357	-0.06073	-0.22903	-0.024261	0.10925	-0.041046	-0.073395	-0.029144	0.040131	0.002441	0.16602	-0.003357	-0.1944	-0.027008	-0.006409	-0.000916
45.783	0.009155	0.07019	-0.029449	0.019684	0.025024	-0.00351	0.13123	0.005798	-0.042572	-0.037842	-0.045776	0.005646	0.021973	0.19852	0.14755	0.25101	0.020447	-0.083008	-0.25604	-0.025024	0.0354	-0.056152	-0.11597	-0.034637	0.026398	-0.007477	0.15274	-0.00061	-0.24277	0.031128	-0.003052	-0.002289
45.784	0.003204	0.10498	-0.020447	0.015717	0.023651	-0.000153	0.12024	0.001831	-0.058289	-0.063782	-0.01236	0.005035	-0.035706	0.1535	-0.052643	-0.16083	0.041504	-0.079803	-0.050964	-0.030365	-0.13336	-0.084534	-0.021515	-0.10239	0.012817	-0.007935	0.060577	0.001526	-0.26215	-0.059967	-0.001526	-0.001068
45.785	0.005035	0.11231	0.010376	0.024872	0.016479	-0.009003	0.10681	-0.005341	-0.051727	-0.099182	-0.054932	0.001068	0.016327	0.20996	-0.20844	0.22064	0.037842	-0.11032	-0.072479	-0.0354	-0.18234	-0.1384	0.000153	-0.10223	0.021667	-0.006714	-0.000153	0.001831	-0.20416	-0.086212	-0.002289	-0.003204
45.786	-0.003204	0.11658	-0.072327	0.024872	0.0177	-0.04837	0.10971	0.001678	-0.050507	-0.18951	-0.01236	0.004578	0.086517	0.20844	-0.24796	-0.004272	0.068512	-0.066986	-0.25223	-0.029907	-0.080566	-0.12054	0.09613	-0.04303	0.027161	0.00824	-0.016632	0.000305	-0.14358	-0.1355	-0.005493	0.00061
45.787	0.005493	0.12909	-0.077209	0.040741	0.020294	-0.067902	0.093689	-0.000763	-0.055084	-0.22598	0.019226	-0.005493	0.02243	0.050201	-0.19959	-0.049896	0.029907	-0.082397	-0.1944	-0.011902	0.18738	-0.012207	0.048828	0.056305	0.022583	-0.009155	0.089417	-0.00061	-0.22354	-0.052948	-0.002441	-0.002747
45.788	0.002747	0.11978	-0.095062	0.021057	0.009613	-0.056458	0.092621	-0.003967	-0.06073	-0.16739	-0.007324	-0.005798	-0.05127	-0.10132	-0.053406	0.33478	-0.020142	-0.083466	-0.15961	0.013275	0.30518	0.10254	-0.010834	0.012512	0.035706	-0.009155	0.14969	-0.004272	-0.25803	0.023804	-0.002136	0.004578
45.789	0.012512	0.13748	-0.10834	0.008698	-0.015259	-0.00946	0.095062	-0.010223	-0.057068	0.11978	-0.037384	-0.001526	-0.11627	-0.19836	0.027161	0.003815	-0.019226	-0.085907	-0.063324	0.038757	0.056152	0.055847	-0.006714	-0.036163	0.010834	-0.007324	0.1828	-0.000763	-0.20783	-0.0354	-0.002441	0.001526
45.79	0.026245	0.13901	-0.1091	0.007782	-0.001526	0.056763	0.10468	-0.001984	-0.081635	-0.11536	-0.039215	-0.006714	-0.085449	-0.39627	0.053558	-0.82764	-0.004578	-0.10895	-0.041046	0.011902	-0.19379	-0.070801	-0.011597	-0.025482	0.025482	-0.007172	0.23529	-0.001373	-0.32913	-0.051117	-0.000916	-0.002441
45.791	0.019073	0.13519	-0.027161	0.004883	0.018463	0.016632	0.14038	-0.005341	-0.11475	-0.39032	-0.009308	0.090485	-0.048523	-0.39414	-0.007935	0.16876	0.018616	-0.091248	0.052032	-0.008698	-0.159	-0.11414	0.002136	-0.059052	0.014343	-0.00061	0.1712	-0.001068	0.020447	-0.092926	-0.000763	-0.003204
45.792	0.021973	0.082245	0.11871	0.008392	0.065765	-0.041351	0.14252	-0.001373	-0.13489	-0.31662	0.004272	0.07782	-0.042419	-0.17059	-0.041504	0.63431	-0.013275	-0.092316	0.10284	-0.031891	0.069885	-0.099487	-0.010223	0.02594	0.041504	0.004272	-0.052032	0.001221	0.088348	-0.14511	-0.000153	-0.000916
45.793	0.018616	0.059814	-0.000458	0.016022	0.074768	0.002136	0.1265	-0.004578	-0.16083	-0.18738	0.020294	-0.12741	-0.052032	-0.062408	-0.021362	-0.55389	-0.078888	-0.13473	-0.036469	-0.023804	0.037384	-0.03418	-0.064392	0.014801	0.044403	0.003357	-0.16205	-0.003967	0.11917	-0.10086	-0.00473	0.000916
45.794	0.013733	0.053101	-0.020905	0.018768	0.017395	0.047607	0.10757	0.006866	-0.11154	-0.15686	0.013275	-0.02533	-0.038147	-0.022736	-0.048676	-0.064087	-0.089874	-0.11627	-0.069427	-0.00061	0.089722	-0.029602	-0.027466	0.054779	0.024109	0.000305	-0.095062	-0.001526	-0.066681	-0.074005	-0.005493	-0.000916
45.795	0.008698	0.077667	-0.006409	0.017548	-0.047302	0.016632	0.12161	-0.001678	-0.045776	-0.0177	0.009918	-0.001526	-0.024567	0.13245	-0.050354	-0.006714	-0.1033	-0.13718	-0.03006	0.038605	0.019684	-0.053711	-0.005188	0.050964	0.010223	0.003204	-0.021362	0.000458	-0.22903	-0.05188	-0.003052	0.000153
